# xmcd CD database file
#
# Track frame offsets:
#	150
#	20334
#	36468
#	55457
#	73887
#	98797
#	115537
#	133539
#	146289
#	173171
#	198879
#	214111
#	228679
#	247702
#	266001
#
# Disc length: 3834 seconds
#
# Revision: 0
# Processed by: cddbd v1.5.1PL0 Copyright (c) Steve Scherf et al.
# Submitted via: CDex 1.51
#
DISCID=d40ef80f
DTITLE=Matt Dusk - Two Shots
DYEAR=2004
DGENRE=Jazz
TTITLE0=Two Shots of Happy, One Shot of Sad 
TTITLE1=Miracle
TTITLE2=Windows
TTITLE3=Cold As Ice
TTITLE4=Lonely Road
TTITLE5=The Theme from Loaded Gun
TTITLE6=Don't Go Looking
TTITLE7=Fly Me To The Moon
TTITLE8=Wish You Well
TTITLE9=Always
TTITLE10=Please Please Me
TTITLE11=Beyond The Sea
TTITLE12=Precious Years
TTITLE13=Every Mother's Son
TTITLE14=Five
EXTD=YEAR: 2004
EXTT0=
EXTT1=
EXTT2=
EXTT3=
EXTT4=
EXTT5=
EXTT6=
EXTT7=
EXTT8=
EXTT9=
EXTT10=
EXTT11=
EXTT12=
EXTT13=
EXTT14=
PLAYORDER=
